<svg width="60" height="60" viewBox="0 0 60 60" fill="none" xmlns="http://www.w3.org/2000/svg">
<path d="M44.4001 31.2973C44.1479 34.0266 43.1236 36.6277 41.447 38.7961C39.7705 40.9645 37.5111 42.6106 34.9331 43.5417C32.3552 44.4729 29.5654 44.6506 26.8902 44.0541C24.2149 43.4576 21.7649 42.1115 19.8267 40.1734C17.8886 38.2352 16.5425 35.7852 15.946 33.11C15.3495 30.4347 15.5272 27.6449 16.4584 25.067C17.3895 22.489 19.0356 20.2296 21.204 18.5531C23.3724 16.8765 25.9735 15.8522 28.7028 15.6C27.1049 17.7618 26.3359 20.4254 26.5359 23.1062C26.7358 25.787 27.8913 28.3071 29.7922 30.208C31.6931 32.1089 34.2131 33.2643 36.8939 33.4643C39.5747 33.6642 42.2383 32.8952 44.4001 31.2973Z" stroke="white" stroke-width="2" stroke-linecap="round" stroke-linejoin="round"/>
<rect x="1.00012" y="1" width="58" height="58" rx="7" stroke="white" stroke-width="2"/>
</svg>
