<svg width="60" height="60" viewBox="0 0 60 60" fill="none" xmlns="http://www.w3.org/2000/svg">
<path d="M44.4 31.2973C44.1478 34.0266 43.1234 36.6277 41.4469 38.7961C39.7704 40.9645 37.5109 42.6106 34.933 43.5417C32.3551 44.4729 29.5653 44.6506 26.89 44.0541C24.2148 43.4576 21.7647 42.1115 19.8266 40.1734C17.8885 38.2352 16.5424 35.7852 15.9459 33.11C15.3493 30.4347 15.5271 27.6449 16.4582 25.067C17.3894 22.489 19.0355 20.2296 21.2039 18.5531C23.3723 16.8765 25.9734 15.8522 28.7027 15.6C27.1047 17.7618 26.3358 20.4254 26.5357 23.1062C26.7356 25.787 27.8911 28.3071 29.792 30.208C31.6929 32.1089 34.213 33.2643 36.8938 33.4643C39.5746 33.6642 42.2382 32.8952 44.4 31.2973Z" stroke="white" stroke-width="2" stroke-linecap="round" stroke-linejoin="round"/>
<rect x="1" y="1" width="58" height="58" rx="7" stroke="white" stroke-width="2"/>
<path d="M44.4 31.2C44.4 39.1529 37.9529 44.4 30 44.4C22.0471 44.4 15.6 37.9529 15.6 30C15.6 22.0471 20.8471 15.6 28.8 15.6C21.6 25.2 31.2 39.6 44.4 31.2Z" fill="white"/>
</svg>
