<svg width="60" height="60" viewBox="0 0 60 60" fill="none" xmlns="http://www.w3.org/2000/svg">
<path d="M30 38C34.4183 38 38 34.4183 38 30C38 25.5817 34.4183 22 30 22C25.5817 22 22 25.5817 22 30C22 34.4183 25.5817 38 30 38Z" stroke="#9A8E25" stroke-width="2" stroke-linecap="round" stroke-linejoin="round"/>
<path d="M30 12.4V15.6" stroke="#9A8E25" stroke-width="2" stroke-linecap="round" stroke-linejoin="round"/>
<path d="M30 44.4V47.6" stroke="#9A8E25" stroke-width="2" stroke-linecap="round" stroke-linejoin="round"/>
<path d="M17.552 17.552L19.824 19.824" stroke="#9A8E25" stroke-width="2" stroke-linecap="round" stroke-linejoin="round"/>
<path d="M40.176 40.176L42.448 42.448" stroke="#9A8E25" stroke-width="2" stroke-linecap="round" stroke-linejoin="round"/>
<path d="M12.4 30H15.6" stroke="#9A8E25" stroke-width="2" stroke-linecap="round" stroke-linejoin="round"/>
<path d="M44.4 30H47.6" stroke="#9A8E25" stroke-width="2" stroke-linecap="round" stroke-linejoin="round"/>
<path d="M17.552 42.448L19.824 40.176" stroke="#9A8E25" stroke-width="2" stroke-linecap="round" stroke-linejoin="round"/>
<path d="M40.176 19.824L42.448 17.552" stroke="#9A8E25" stroke-width="2" stroke-linecap="round" stroke-linejoin="round"/>
<circle cx="30.0001" cy="30" r="8.4" fill="#9A8E25"/>
<rect x="1" y="1" width="58" height="58" rx="7" stroke="#A59A3F" stroke-width="2"/>
</svg>
