<svg width="29" height="30" viewBox="0 0 29 30" fill="none" xmlns="http://www.w3.org/2000/svg">
<path d="M14.335 28.5791C21.6997 28.5791 27.67 22.6088 27.67 15.2441C27.67 7.87937 21.6997 1.90909 14.335 1.90909C6.97028 1.90909 1 7.87937 1 15.2441C1 22.6088 6.97028 28.5791 14.335 28.5791Z" stroke="#F0F2F5" stroke-width="2" stroke-linecap="round" stroke-linejoin="round"/>
<g clip-path="url(#clip0)">
<path d="M14.24 5.85335V24.6267" stroke="white" stroke-linecap="round" stroke-linejoin="round"/>
<path d="M18.5067 9.26665H12.1067C11.3145 9.26665 10.5549 9.58131 9.99477 10.1414C9.43466 10.7015 9.12 11.4612 9.12 12.2533C9.12 13.0454 9.43466 13.8051 9.99477 14.3652C10.5549 14.9253 11.3145 15.24 12.1067 15.24H16.3733C17.1654 15.24 17.9251 15.5546 18.4852 16.1148C19.0453 16.6749 19.36 17.4345 19.36 18.2266C19.36 19.0188 19.0453 19.7784 18.4852 20.3385C17.9251 20.8986 17.1654 21.2133 16.3733 21.2133H9.12" stroke="white" stroke-linecap="round" stroke-linejoin="round"/>
</g>
<defs>
<clipPath id="clip0">
<rect width="20.48" height="20.48" fill="white" transform="translate(4 5)"/>
</clipPath>
</defs>
</svg>
